# xmcd
#
# Track frame offsets: 
#        150
#        16030
#        39297
#        51134
#        69068
#        84653
#        121714
#        145884
#        166650
#        185030
#
# Disc length: 2787 seconds
#
# Revision: 0
# Processed by: cddbd v1.5.2PL0 Copyright (c) Steve Scherf et al.
# Submitted via: ExactAudioCopy v0.99pb4
#
DISCID=710ae10a
DTITLE=Willie Pooch and Cadillac Zack - The Blues Do Something To Me
DYEAR=2004
DGENRE=Blues
TTITLE0=The Blues Do Something To Me
TTITLE1=I Get So Weary
TTITLE2=I Made Nights By Myself
TTITLE3=Worried About That
TTITLE4=Worried About You, Baby
TTITLE5=As The Years Go Passing By
TTITLE6=You Gotta Mov
TTITLE7=Movin'
TTITLE8=Roosevelt Rock (For The 1815)
TTITLE9=Makin' A Decision
EXTD=
EXTT0=
EXTT1=
EXTT2=
EXTT3=
EXTT4=
EXTT5=
EXTT6=
EXTT7=
EXTT8=
EXTT9=
PLAYORDER=
